<svg version="1.1" id="Layer_1" xmlns="http://www.w3.org/2000/svg" xmlns:xlink="http://www.w3.org/1999/xlink" x="0px" y="0px"
	 width="100%" viewBox="0 0 640 360" enable-background="new 0 0 640 360" xml:space="preserve">
<path fill="#FFFFFF" opacity="1.000000" stroke="none" 
	d="
M450.000000,361.000000 
	C300.365570,361.000000 150.731125,361.000000 1.048347,361.000000 
	C1.048347,241.058090 1.048347,121.116158 1.048347,1.087110 
	C214.229279,1.087110 427.458588,1.087110 640.843994,1.087110 
	C640.843994,120.999863 640.843994,240.999893 640.843994,361.000000 
	C578.569763,361.000000 516.249878,361.000000 453.620972,360.706635 
	C462.980835,350.643402 472.649719,340.873535 482.612457,330.968750 
	C487.164215,325.561890 492.397430,322.005127 499.320648,321.245026 
	C500.578217,321.106995 501.774872,320.413696 503.377075,319.977478 
	C510.392395,317.126129 517.030273,314.273987 524.011963,311.400177 
	C530.317322,307.589996 536.278931,303.801483 542.548218,299.898315 
	C546.246643,296.859314 549.637390,293.934967 553.337524,290.882446 
	C556.320984,287.893250 558.995056,285.032257 561.843140,281.913116 
	C564.113342,278.815887 566.209595,275.976807 568.594849,272.975952 
	C572.318054,267.544647 575.752258,262.275116 579.442871,256.781982 
	C581.862793,251.513199 584.026184,246.468002 586.445374,241.126099 
	C588.112183,235.886353 589.523315,230.943298 591.105591,225.649109 
	C592.175659,217.532196 593.074463,209.766418 594.002930,201.659653 
	C594.866089,200.310440 595.699707,199.302216 596.811340,198.140442 
	C600.977783,194.122650 605.004944,190.382538 608.651855,186.302429 
	C609.508728,185.343765 609.080994,183.236938 609.244324,181.658325 
	C607.800598,181.984818 605.972778,181.865280 604.982483,182.718231 
	C601.473145,185.740723 598.249878,189.095352 594.819580,191.905640 
	C594.394958,188.324341 594.069092,185.161530 593.793091,181.588654 
	C593.126221,177.119553 592.409485,173.060532 591.731201,168.724670 
	C591.549133,167.950378 591.328552,167.452911 591.126282,166.619568 
	C591.018677,165.856064 590.892822,165.428421 590.796753,164.719193 
	C590.590881,163.941666 590.355225,163.445740 590.127197,162.613342 
	C589.999634,161.851685 589.864502,161.426529 589.727966,160.630417 
	C585.743469,150.109741 581.760376,139.960022 577.479858,129.052322 
	C581.918396,124.685249 587.116394,119.797539 591.993835,114.608551 
	C593.173584,113.353424 594.345398,110.213402 593.715210,109.469162 
	C591.360840,106.688797 589.722412,109.607643 588.198914,111.097359 
	C583.483337,115.708435 578.878784,120.433090 573.910339,125.436737 
	C565.103760,112.038963 554.660339,101.006073 542.398804,91.695511 
	C541.944946,91.350914 541.819641,90.573517 541.835327,89.797440 
	C548.511902,83.109543 554.894409,76.622040 561.573486,69.994278 
	C570.108887,61.629326 578.417480,53.471893 586.499390,45.095749 
	C587.522827,44.035007 587.357971,41.827679 587.743591,40.151554 
	C586.185791,40.493187 584.115051,40.311993 583.150391,41.258289 
	C574.612915,49.633713 566.271484,58.209084 557.568359,66.879105 
	C550.528992,73.788338 543.793518,80.543861 536.687988,87.268997 
	C527.898315,83.105209 519.478699,78.971809 510.865997,74.618607 
	C510.111969,74.275299 509.550964,74.151810 508.779938,73.845764 
	C508.046387,73.520744 507.522888,73.378265 506.632751,73.068008 
	C500.988800,72.105354 495.125000,67.128380 490.766052,75.174759 
	C487.975739,77.858971 485.486755,80.399948 482.674438,83.042374 
	C477.900238,87.761383 473.449341,92.378960 468.660522,97.038788 
	C467.882324,97.191322 467.442139,97.301598 466.764160,97.297958 
	C466.351013,97.172745 466.175598,97.161453 465.764404,96.861534 
	C465.352417,95.382233 465.176270,94.191551 465.291077,92.840881 
	C473.483368,84.778687 481.384735,76.876465 489.859283,68.401039 
	C474.389343,65.741447 460.178223,64.905785 445.562408,67.678574 
	C443.154205,68.274742 441.092651,68.790497 438.834473,69.375443 
	C438.637848,69.444633 438.288239,69.671700 437.970581,69.392273 
	C434.400757,70.056656 431.148651,71.000465 427.588318,72.069626 
	C423.829956,76.059914 420.379761,79.924866 416.581726,83.848236 
	C412.369171,87.674782 408.504456,91.442902 404.328217,95.369522 
	C400.952576,98.654869 397.888489,101.781700 394.520264,105.038017 
	C391.419067,108.083115 388.621979,110.998726 385.445618,113.923370 
	C384.056061,113.952461 383.045746,113.972519 381.872162,113.616768 
	C381.659515,112.161522 381.610168,111.082085 381.760620,109.911331 
	C381.960449,109.820000 382.147217,109.422226 382.453766,109.262764 
	C386.981537,104.782707 391.202759,100.462112 395.713654,96.006561 
	C402.328033,89.458580 408.652740,83.045540 414.977478,76.632507 
	C414.666656,76.174004 414.355835,75.715500 414.045013,75.256996 
	C405.656403,80.395622 397.267822,85.534248 388.550140,90.791183 
	C383.423553,94.917412 378.626038,98.925354 373.528961,103.074501 
	C371.030090,105.801727 368.830811,108.387733 366.326416,111.168274 
	C361.666412,117.570946 357.311554,123.779091 352.687134,130.198730 
	C349.660858,136.201660 346.904144,141.993073 343.953369,148.046600 
	C341.944427,154.204636 340.129578,160.100586 338.167328,166.378662 
	C337.216492,171.445709 336.413025,176.130630 335.341370,181.151672 
	C335.125488,189.659485 335.177826,197.831192 335.175995,206.424957 
	C336.531036,214.857773 337.671967,222.929932 339.484558,230.848343 
	C340.186951,233.916824 339.693146,235.736282 337.521088,237.805344 
	C331.980194,243.083557 326.544495,248.483475 321.311157,254.063934 
	C320.243439,255.202499 320.245331,257.344147 319.754150,259.023376 
	C321.552368,258.564362 323.457611,258.335571 325.111847,257.566772 
	C326.245300,257.040039 327.045288,255.776932 327.967041,254.816803 
	C332.545074,250.048294 337.114044,245.271149 341.980957,240.189285 
	C343.100555,242.378937 343.747162,243.643600 344.891296,245.881271 
	C349.125122,241.360153 352.854706,237.117126 356.905823,233.207230 
	C358.149963,232.006454 360.274078,231.717453 362.132935,231.313477 
	C362.159180,233.031219 362.047821,234.446426 361.629456,236.001495 
	C356.446594,240.895309 351.570770,245.649261 346.513062,250.580521 
	C364.559082,287.292114 393.043732,310.854065 432.432251,322.215790 
	C427.360291,327.246490 422.764343,331.583984 418.491577,336.219360 
	C417.575958,337.212738 417.830658,339.284851 417.546234,340.860046 
	C419.113068,340.545685 421.162689,340.753540 422.164154,339.827667 
	C426.803986,335.537903 431.053772,330.827698 435.665253,326.504913 
	C437.080292,325.178467 439.200439,324.604309 441.393127,323.818054 
	C444.021423,323.322723 446.776642,323.309845 448.383240,321.944946 
	C452.261780,318.649994 455.603668,314.723328 459.467957,310.915833 
	C462.546661,307.588593 465.319366,304.396912 468.515930,301.160095 
	C470.385620,301.531281 471.831512,301.947662 473.277344,302.364044 
	C472.678314,303.791809 472.423553,305.549377 471.423676,306.593109 
	C465.510681,312.765320 459.424652,318.771759 452.670715,325.564270 
	C462.549255,325.564270 471.345856,325.564270 480.248810,325.564270 
	C479.759613,326.331696 479.328400,327.008209 478.591492,327.841156 
	C469.373108,336.887543 460.492371,345.809937 451.522278,354.641632 
	C449.592896,356.541260 448.189484,358.320587 450.000000,361.000000 
M239.178452,168.453445 
	C235.416031,188.275894 254.508759,200.795990 268.684418,196.049225 
	C270.248291,195.353012 271.812134,194.656784 274.066315,193.775085 
	C276.420166,191.603302 278.773987,189.431519 281.711273,186.868622 
	C282.812592,184.246964 283.913879,181.625290 285.435333,178.311996 
	C288.145325,161.592270 276.477936,148.630051 259.217834,149.963272 
	C256.080475,151.135956 252.943100,152.308655 249.143341,153.721710 
	C246.919861,156.078629 244.696381,158.435547 242.015518,161.287552 
	C241.179214,163.459335 240.342911,165.631119 239.178452,168.453445 
M239.009369,162.665588 
	C240.678101,160.113953 242.346832,157.562317 244.626221,154.748169 
	C246.757828,153.178635 248.889420,151.609100 251.765350,149.958237 
	C254.177826,149.218002 256.590302,148.477768 259.726105,147.540237 
	C265.365021,126.920128 247.228226,103.787445 224.133240,103.060905 
	C220.069916,103.658012 216.006577,104.255119 211.194183,104.873764 
	C207.805878,106.606552 204.417572,108.339348 200.384811,110.252663 
	C197.841553,112.794830 195.298309,115.336998 192.175873,118.210899 
	C190.790176,120.809029 189.404480,123.407158 187.546371,126.564095 
	C186.694107,130.707886 185.841843,134.851669 184.798782,139.895721 
	C183.516190,162.615112 203.971298,180.030777 223.836166,178.952591 
	C226.560822,178.589828 229.419968,178.614151 231.963577,177.730331 
	C233.705215,177.125168 235.007446,175.255356 236.712601,173.225769 
	C237.350037,169.872147 237.987457,166.518539 239.009369,162.665588 
z"/>
<path fill="#7717C9" opacity="1.000000" stroke="none" 
	d="
M450.375000,361.000000 
	C448.189484,358.320587 449.592896,356.541260 451.522278,354.641632 
	C460.492371,345.809937 469.373108,336.887543 478.648376,328.224609 
	C480.113464,329.335632 481.216034,330.219635 482.318604,331.103668 
	C472.649719,340.873535 462.980835,350.643402 453.155945,360.706635 
	C452.250000,361.000000 451.500000,361.000000 450.375000,361.000000 
z"/>
<path fill="#9119B6" opacity="1.000000" stroke="none" 
	d="
M542.240479,300.013000 
	C536.278931,303.801483 530.317322,307.589996 523.676392,311.186157 
	C518.922180,306.419922 514.914246,301.784302 510.756714,297.286926 
	C504.800995,290.844299 498.697144,284.538818 492.725983,278.110291 
	C480.800995,265.272003 468.903992,252.407516 457.033356,239.518875 
	C450.298645,232.206619 443.623749,224.839020 436.950104,217.470810 
	C431.057098,210.964508 425.318634,204.314026 419.298737,197.928177 
	C413.629608,191.914490 407.511932,186.321198 401.890137,180.265778 
	C387.344879,164.598602 373.004150,148.741531 358.452515,133.080322 
	C357.089600,131.613480 354.810425,130.997986 352.956665,129.987213 
	C357.311554,123.779091 361.666412,117.570946 366.406616,111.607422 
	C367.686584,113.559738 368.270508,115.550316 369.526031,116.929550 
	C378.123474,126.374184 386.846069,135.705231 395.558258,145.045029 
	C409.817810,160.331909 424.129608,175.570190 438.363770,190.880676 
	C450.432648,203.862213 462.332397,217.001892 474.469269,229.919174 
	C492.542938,249.155014 510.766327,268.250092 528.903137,287.426758 
	C530.491577,289.106262 531.750732,291.120209 533.443909,292.672302 
	C536.256042,295.250153 539.296326,297.579163 542.240479,300.013000 
z"/>
<path fill="#8A18BB" opacity="1.000000" stroke="none" 
	d="
M352.687103,130.198730 
	C354.810425,130.997986 357.089600,131.613480 358.452515,133.080322 
	C373.004150,148.741531 387.344879,164.598602 401.890137,180.265778 
	C407.511932,186.321198 413.629608,191.914490 419.298737,197.928177 
	C425.318634,204.314026 431.057098,210.964508 436.950104,217.470810 
	C443.623749,224.839020 450.298645,232.206619 457.033356,239.518875 
	C468.903992,252.407516 480.800995,265.272003 492.725983,278.110291 
	C498.697144,284.538818 504.800995,290.844299 510.756714,297.286926 
	C514.914246,301.784302 518.922180,306.419922 523.332520,311.207825 
	C517.030273,314.273987 510.392395,317.126129 503.372437,319.607971 
	C502.262024,317.601929 501.888184,315.647949 500.750061,314.380096 
	C490.340332,302.783569 479.899994,291.210876 469.267303,279.819092 
	C456.806793,266.468994 444.156189,253.296097 431.562531,240.070648 
	C428.610901,236.970886 425.455048,234.061768 422.567017,230.905823 
	C409.474854,216.599228 396.453400,202.227951 383.389221,187.895691 
	C376.241364,180.054016 369.226410,172.081238 361.838104,164.471924 
	C356.196503,158.661591 350.062439,153.329391 344.147461,147.784500 
	C346.904144,141.993073 349.660858,136.201660 352.687103,130.198730 
z"/>
<path fill="#A51CA8" opacity="1.000000" stroke="none" 
	d="
M579.186401,257.005554 
	C575.752258,262.275116 572.318054,267.544647 568.265259,272.825958 
	C551.395935,255.356354 535.157288,237.863739 518.889526,220.398224 
	C510.195892,211.064514 501.410400,201.816193 492.740601,192.460510 
	C480.023529,178.737320 467.465912,164.865341 454.668640,151.217773 
	C441.293121,136.953537 427.589661,122.995338 414.304565,108.648712 
	C410.584320,104.631210 407.834656,99.714981 404.639740,95.211021 
	C408.504456,91.442902 412.369171,87.674782 416.626892,84.207108 
	C422.994934,91.152794 428.865479,97.895721 434.967224,104.422493 
	C446.856659,117.140076 458.960083,129.658066 470.814453,142.407883 
	C480.532043,152.859543 489.933136,163.605057 499.625000,174.081116 
	C513.840027,189.446320 528.175171,204.700592 542.486084,219.976898 
	C553.359314,231.583664 564.248474,243.175888 575.214233,254.694962 
	C576.228333,255.760239 577.847961,256.249054 579.186401,257.005554 
z"/>
<path fill="#A81CA6" opacity="1.000000" stroke="none" 
	d="
M579.442871,256.781982 
	C577.847961,256.249054 576.228333,255.760239 575.214233,254.694962 
	C564.248474,243.175888 553.359314,231.583664 542.486084,219.976898 
	C528.175171,204.700592 513.840027,189.446320 499.625000,174.081116 
	C489.933136,163.605057 480.532043,152.859543 470.814453,142.407883 
	C458.960083,129.658066 446.856659,117.140076 434.967224,104.422493 
	C428.865479,97.895721 422.994934,91.152794 416.974731,84.148682 
	C420.379761,79.924866 423.829956,76.059914 427.864746,72.271172 
	C433.065613,77.497833 437.595856,82.728714 442.318420,87.779831 
	C449.339508,95.289413 456.579529,102.594818 463.576935,110.125984 
	C474.857147,122.266533 486.024536,134.512009 497.222748,146.728592 
	C507.872009,158.346313 518.356567,170.118805 529.168640,181.582733 
	C548.072571,201.626572 567.172058,221.486084 586.189636,241.422821 
	C584.026184,246.468002 581.862793,251.513199 579.442871,256.781982 
z"/>
<path fill="#8518BF" opacity="1.000000" stroke="none" 
	d="
M343.953369,148.046600 
	C350.062439,153.329391 356.196503,158.661591 361.838104,164.471924 
	C369.226410,172.081238 376.241364,180.054016 383.389221,187.895691 
	C396.453400,202.227951 409.474854,216.599228 422.567017,230.905823 
	C425.455048,234.061768 428.610901,236.970886 431.562531,240.070648 
	C444.156189,253.296097 456.806793,266.468994 469.267303,279.819092 
	C479.899994,291.210876 490.340332,302.783569 500.750061,314.380096 
	C501.888184,315.647949 502.262024,317.601929 502.994995,319.607178 
	C501.774872,320.413696 500.578217,321.106995 499.320648,321.245026 
	C492.397430,322.005127 487.164215,325.561890 482.612457,330.968750 
	C481.216034,330.219635 480.113464,329.335632 478.954041,328.068146 
	C479.328400,327.008209 479.759613,326.331696 480.248810,325.564270 
	C471.345856,325.564270 462.549255,325.564270 452.670715,325.564270 
	C459.424652,318.771759 465.510681,312.765320 471.423676,306.593109 
	C472.423553,305.549377 472.678314,303.791809 473.277344,302.364044 
	C471.831512,301.947662 470.385620,301.531281 468.372162,300.841980 
	C465.683746,298.028809 463.686951,295.371826 461.422882,292.966461 
	C439.037872,269.184296 416.605835,245.446396 394.193756,221.689728 
	C388.745667,215.914810 383.283386,210.152542 377.894714,204.322433 
	C366.535675,192.032837 355.283630,179.643021 343.788025,167.483078 
	C342.679626,166.310638 340.172516,166.460495 338.314728,165.996521 
	C340.129578,160.100586 341.944427,154.204636 343.953369,148.046600 
z"/>
<path fill="#971AB2" opacity="1.000000" stroke="none" 
	d="
M542.548218,299.898315 
	C539.296326,297.579163 536.256042,295.250153 533.443909,292.672302 
	C531.750732,291.120209 530.491577,289.106262 528.903137,287.426758 
	C510.766327,268.250092 492.542938,249.155014 474.469269,229.919174 
	C462.332397,217.001892 450.432648,203.862213 438.363770,190.880676 
	C424.129608,175.570190 409.817810,160.331909 395.558258,145.045029 
	C386.846069,135.705231 378.123474,126.374184 369.526031,116.929550 
	C368.270508,115.550316 367.686584,113.559738 366.711700,111.412888 
	C368.830811,108.387733 371.030090,105.801727 373.924133,103.092957 
	C378.902435,103.050774 381.014160,105.665512 382.147217,109.422226 
	C382.147217,109.422226 381.960449,109.820000 381.466766,109.993698 
	C381.327179,111.442459 381.681305,112.717522 382.035431,113.992584 
	C383.045746,113.972519 384.056061,113.952461 385.759766,114.068428 
	C397.038696,125.365494 407.682190,136.472229 418.196930,147.699554 
	C436.673798,167.428482 455.040619,187.260513 473.518158,206.988846 
	C481.096497,215.080185 488.897888,222.962372 496.497986,231.033722 
	C505.256348,240.335175 513.943054,249.704971 522.586853,259.113159 
	C528.529663,265.581604 534.231934,272.273895 540.259277,278.660797 
	C544.319153,282.962799 548.758545,286.906616 553.028137,291.010651 
	C549.637390,293.934967 546.246643,296.859314 542.548218,299.898315 
z"/>
<path fill="#7C16C5" opacity="1.000000" stroke="none" 
	d="
M459.161957,311.051392 
	C455.603668,314.723328 452.261780,318.649994 448.383240,321.944946 
	C446.776642,323.309845 444.021423,323.322723 441.319946,323.504089 
	C438.356628,320.014404 436.032196,316.810211 433.336029,313.957336 
	C424.390717,304.492035 415.248718,295.212646 406.301819,285.748840 
	C397.665802,276.613892 389.178955,267.337921 380.624878,258.125488 
	C376.144562,253.300446 371.546722,248.577835 367.228455,243.612000 
	C365.189667,241.267487 363.683777,238.459579 361.936462,235.861633 
	C362.047821,234.446426 362.159180,233.031219 362.072205,230.961578 
	C360.036865,228.864365 358.085632,227.544174 356.382812,225.957458 
	C349.291199,219.349609 342.274414,212.661530 335.230164,206.002884 
	C335.177826,197.831192 335.125488,189.659485 335.656799,181.340485 
	C338.238129,183.068588 340.358734,184.830688 342.211090,186.840088 
	C348.392792,193.545990 354.434540,200.380829 360.611359,207.091293 
	C369.237457,216.462631 377.907410,225.794037 386.611420,235.093063 
	C401.930847,251.459641 417.330048,267.751678 432.616364,284.149017 
	C440.421722,292.521667 448.024109,301.083405 455.812775,309.471893 
	C456.592133,310.311310 458.029816,310.539520 459.161957,311.051392 
z"/>
<path fill="#B21E9F" opacity="1.000000" stroke="none" 
	d="
M468.998474,96.996529 
	C473.449341,92.378960 477.900238,87.761383 482.679016,83.412392 
	C485.258057,86.872749 487.182983,90.367210 489.815887,93.204727 
	C502.218384,106.571068 514.860413,119.714767 527.329590,133.019730 
	C539.805359,146.331726 552.209717,159.711090 564.581543,173.119858 
	C570.640625,179.686874 576.357666,186.581223 582.613647,192.950104 
	C585.981323,196.378448 590.160339,199.009735 593.973267,202.000641 
	C593.074463,209.766418 592.175659,217.532196 590.765747,225.612152 
	C584.093262,219.707977 577.798523,213.615250 571.797485,207.245789 
	C558.265442,192.882904 544.929260,178.335693 531.420227,163.950974 
	C514.382080,145.808487 497.225922,127.776894 480.179657,109.641998 
	C476.327789,105.544159 472.719116,101.217735 468.998474,96.996529 
z"/>
<path fill="#9B1AAF" opacity="1.000000" stroke="none" 
	d="
M553.337524,290.882446 
	C548.758545,286.906616 544.319153,282.962799 540.259277,278.660797 
	C534.231934,272.273895 528.529663,265.581604 522.586853,259.113159 
	C513.943054,249.704971 505.256348,240.335175 496.497986,231.033722 
	C488.897888,222.962372 481.096497,215.080185 473.518158,206.988846 
	C455.040619,187.260513 436.673798,167.428482 418.196930,147.699554 
	C407.682190,136.472229 397.038696,125.365494 386.139008,114.059402 
	C388.621979,110.998726 391.419067,108.083115 394.815063,105.223114 
	C398.161896,107.910149 401.047363,110.413696 403.634308,113.194901 
	C415.508423,125.960693 427.300629,138.802658 439.119232,151.620102 
	C450.824829,164.315018 462.486481,177.050690 474.239594,189.701462 
	C492.668671,209.538040 511.167999,229.309387 529.618164,249.126434 
	C537.878540,257.998810 546.038818,266.965118 554.362183,275.777679 
	C556.574341,278.119934 559.221619,280.051270 561.669128,282.171265 
	C558.995056,285.032257 556.320984,287.893250 553.337524,290.882446 
z"/>
<path fill="#AD1DA3" opacity="1.000000" stroke="none" 
	d="
M468.660522,97.038788 
	C472.719116,101.217735 476.327789,105.544159 480.179657,109.641998 
	C497.225922,127.776894 514.382080,145.808487 531.420227,163.950974 
	C544.929260,178.335693 558.265442,192.882904 571.797485,207.245789 
	C577.798523,213.615250 584.093262,219.707977 590.594482,225.963287 
	C589.523315,230.943298 588.112183,235.886353 586.445374,241.126114 
	C567.172058,221.486084 548.072571,201.626572 529.168640,181.582733 
	C518.356567,170.118805 507.872009,158.346313 497.222748,146.728592 
	C486.024536,134.512009 474.857147,122.266533 463.576935,110.125984 
	C456.579529,102.594818 449.339508,95.289413 442.318420,87.779831 
	C437.595856,82.728714 433.065613,77.497833 428.172913,72.145828 
	C431.148651,71.000465 434.400757,70.056656 438.070679,69.402328 
	C438.721710,69.648445 438.902557,69.519928 439.031067,69.306244 
	C441.092651,68.790497 443.154205,68.274742 445.587433,68.075470 
	C448.089355,71.211288 450.189117,74.054291 452.356415,76.844894 
	C456.550903,82.245819 460.783386,87.617226 465.000153,93.000862 
	C465.176270,94.191551 465.352417,95.382233 465.776978,97.085808 
	C466.136017,97.857407 466.246674,98.116112 466.357300,98.374817 
	C466.572174,98.053841 466.787048,97.732857 467.001923,97.411880 
	C467.442139,97.301598 467.882324,97.191322 468.660522,97.038788 
z"/>
<path fill="#9F1BAC" opacity="1.000000" stroke="none" 
	d="
M561.843140,281.913116 
	C559.221619,280.051270 556.574341,278.119934 554.362183,275.777679 
	C546.038818,266.965118 537.878540,257.998810 529.618164,249.126434 
	C511.167999,229.309387 492.668671,209.538040 474.239594,189.701462 
	C462.486481,177.050690 450.824829,164.315018 439.119232,151.620102 
	C427.300629,138.802658 415.508423,125.960693 403.634308,113.194901 
	C401.047363,110.413696 398.161896,107.910149 395.119141,105.093628 
	C397.888489,101.781700 400.952576,98.654869 404.328217,95.369522 
	C407.834656,99.714981 410.584320,104.631210 414.304565,108.648712 
	C427.589661,122.995338 441.293121,136.953537 454.668640,151.217773 
	C467.465912,164.865341 480.023529,178.737320 492.740601,192.460510 
	C501.410400,201.816193 510.195892,211.064514 518.889526,220.398224 
	C535.157288,237.863739 551.395935,255.356354 567.976257,272.987732 
	C566.209595,275.976807 564.113342,278.815887 561.843140,281.913116 
z"/>
<path fill="#8117C1" opacity="1.000000" stroke="none" 
	d="
M459.467957,310.915833 
	C458.029816,310.539520 456.592133,310.311310 455.812775,309.471893 
	C448.024109,301.083405 440.421722,292.521667 432.616364,284.149017 
	C417.330048,267.751678 401.930847,251.459641 386.611420,235.093063 
	C377.907410,225.794037 369.237457,216.462631 360.611359,207.091293 
	C354.434540,200.380829 348.392792,193.545990 342.211090,186.840088 
	C340.358734,184.830688 338.238129,183.068588 335.925018,181.004364 
	C336.413025,176.130630 337.216492,171.445709 338.167328,166.378662 
	C340.172516,166.460495 342.679626,166.310638 343.788025,167.483078 
	C355.283630,179.643021 366.535675,192.032837 377.894714,204.322433 
	C383.283386,210.152542 388.745667,215.914810 394.193756,221.689728 
	C416.605835,245.446396 439.037872,269.184296 461.422882,292.966461 
	C463.686951,295.371826 465.683746,298.028809 467.948334,300.887146 
	C465.319366,304.396912 462.546661,307.588593 459.467957,310.915833 
z"/>
<path fill="#7717C9" opacity="1.000000" stroke="none" 
	d="
M361.629456,236.001495 
	C363.683777,238.459579 365.189667,241.267487 367.228455,243.612000 
	C371.546722,248.577835 376.144562,253.300446 380.624878,258.125488 
	C389.178955,267.337921 397.665802,276.613892 406.301819,285.748840 
	C415.248718,295.212646 424.390717,304.492035 433.336029,313.957336 
	C436.032196,316.810211 438.356628,320.014404 440.924500,323.371674 
	C439.200439,324.604309 437.080292,325.178467 435.665253,326.504913 
	C431.053772,330.827698 426.803986,335.537903 422.164154,339.827667 
	C421.162689,340.753540 419.113068,340.545685 417.546234,340.860046 
	C417.830658,339.284851 417.575958,337.212738 418.491577,336.219360 
	C422.764343,331.583984 427.360291,327.246490 432.432251,322.215790 
	C393.043732,310.854065 364.559082,287.292114 346.513062,250.580521 
	C351.570770,245.649261 356.446594,240.895309 361.629456,236.001495 
z"/>
<path fill="#B71E9C" opacity="1.000000" stroke="none" 
	d="
M594.002930,201.659668 
	C590.160339,199.009735 585.981323,196.378448 582.613647,192.950104 
	C576.357666,186.581223 570.640625,179.686874 564.581543,173.119858 
	C552.209717,159.711090 539.805359,146.331726 527.329590,133.019730 
	C514.860413,119.714767 502.218384,106.571068 489.815887,93.204727 
	C487.182983,90.367210 485.258057,86.872749 483.002319,83.310951 
	C485.486755,80.399948 487.975739,77.858971 491.071045,75.309181 
	C493.251404,76.500099 495.039673,77.501770 496.362885,78.933342 
	C502.548309,85.625328 508.484344,92.550034 514.733398,99.180534 
	C528.254028,113.526527 541.963867,127.694252 555.488953,142.036118 
	C561.364380,148.266403 566.820374,154.894730 572.746643,161.073959 
	C579.584351,168.203461 586.730896,175.036789 593.743286,181.998718 
	C594.069092,185.161530 594.394958,188.324341 594.845825,192.313477 
	C595.491638,194.857880 596.012451,196.575943 596.533264,198.293991 
	C595.699707,199.302216 594.866089,200.310440 594.002930,201.659668 
z"/>
<path fill="#BA1E9A" opacity="1.000000" stroke="none" 
	d="
M593.793152,181.588654 
	C586.730896,175.036789 579.584351,168.203461 572.746643,161.073959 
	C566.820374,154.894730 561.364380,148.266403 555.488953,142.036118 
	C541.963867,127.694252 528.254028,113.526527 514.733398,99.180534 
	C508.484344,92.550034 502.548309,85.625328 496.362885,78.933342 
	C495.039673,77.501770 493.251404,76.500099 491.372375,75.165955 
	C495.125000,67.128380 500.988800,72.105354 506.674225,73.340851 
	C507.718170,73.863754 508.354065,73.946037 508.989960,74.028313 
	C509.550964,74.151810 510.111969,74.275299 510.877808,74.983261 
	C511.972107,77.127693 512.608032,78.920143 513.791504,80.210564 
	C522.745056,89.973656 531.802246,99.641869 540.834656,109.332581 
	C549.837830,118.991982 558.803467,128.687088 567.872925,138.283981 
	C575.090149,145.920944 582.438904,153.433548 589.729309,161.001358 
	C589.864502,161.426529 589.999634,161.851685 589.887817,162.761078 
	C590.016174,163.830444 590.391602,164.415619 590.767029,165.000778 
	C590.892822,165.428421 591.018677,165.856064 590.890381,166.763275 
	C590.988403,167.829071 591.340515,168.415283 591.692688,169.001511 
	C592.409485,173.060532 593.126221,177.119553 593.793152,181.588654 
z"/>
<path fill="#BD2098" opacity="1.000000" stroke="none" 
	d="
M589.727966,160.630417 
	C582.438904,153.433548 575.090149,145.920944 567.872925,138.283981 
	C558.803467,128.687088 549.837830,118.991982 540.834656,109.332581 
	C531.802246,99.641869 522.745056,89.973656 513.791504,80.210564 
	C512.608032,78.920143 511.972107,77.127693 511.070831,75.203072 
	C519.478699,78.971809 527.898315,83.105209 536.854614,87.527100 
	C538.774597,88.542999 540.157959,89.270409 541.541260,89.997818 
	C541.819641,90.573517 541.944946,91.350914 542.398804,91.695511 
	C554.660339,101.006073 565.103760,112.038963 573.910339,125.436737 
	C578.878784,120.433090 583.483337,115.708435 588.198914,111.097359 
	C589.722412,109.607643 591.360840,106.688797 593.715210,109.469162 
	C594.345398,110.213402 593.173584,113.353424 591.993835,114.608551 
	C587.116394,119.797539 581.918396,124.685249 577.479858,129.052322 
	C581.760376,139.960022 585.743469,150.109741 589.727966,160.630417 
z"/>
<path fill="#A51CA8" opacity="1.000000" stroke="none" 
	d="
M201.029266,110.072144 
	C204.417572,108.339348 207.805878,106.606552 211.708252,105.196182 
	C213.532394,107.562416 214.571548,109.857498 216.196426,111.609314 
	C226.854340,123.099701 237.658401,134.454407 248.352188,145.911804 
	C249.452682,147.090881 250.141296,148.654419 251.021027,150.039566 
	C248.889420,151.609100 246.757828,153.178635 244.009674,154.743774 
	C242.531448,154.238953 241.499298,153.903000 240.833740,153.213287 
	C231.601837,143.646347 222.336166,134.109360 213.263153,124.392838 
	C208.982468,119.808563 205.094940,114.857185 201.029266,110.072144 
z"/>
<path fill="#8518BF" opacity="1.000000" stroke="none" 
	d="
M236.506104,173.950882 
	C235.007446,175.255356 233.705215,177.125168 231.963577,177.730331 
	C229.419968,178.614151 226.560822,178.589828 223.353485,178.554321 
	C217.468033,172.157455 212.084885,166.141037 206.656616,160.165619 
	C201.884201,154.912125 197.174652,149.593307 192.206924,144.529343 
	C190.104980,142.386658 187.413254,140.822540 184.989594,138.995453 
	C185.841843,134.851669 186.694107,130.707886 188.052460,126.473343 
	C195.792908,133.842789 203.121414,141.214615 210.232330,148.790649 
	C216.097916,155.039932 221.520218,161.713120 227.517181,167.827484 
	C230.006668,170.365707 233.480118,171.938858 236.506104,173.950882 
z"/>
<path fill="#B21E9F" opacity="1.000000" stroke="none" 
	d="
M251.393188,149.998901 
	C250.141296,148.654419 249.452682,147.090881 248.352188,145.911804 
	C237.658401,134.454407 226.854340,123.099701 216.196426,111.609314 
	C214.571548,109.857498 213.532394,107.562416 212.082794,105.185410 
	C216.006577,104.255119 220.069916,103.658012 224.612991,103.488983 
	C226.055695,105.437042 226.807220,107.155342 228.016373,108.444366 
	C235.144867,116.043747 242.835541,123.170898 249.408813,131.215424 
	C253.375290,136.069702 260.954071,139.303421 259.002777,147.737549 
	C256.590302,148.477768 254.177826,149.218002 251.393188,149.998901 
z"/>
<path fill="#9119B6" opacity="1.000000" stroke="none" 
	d="
M236.609344,173.588318 
	C233.480118,171.938858 230.006668,170.365707 227.517181,167.827484 
	C221.520218,161.713120 216.097916,155.039932 210.232330,148.790649 
	C203.121414,141.214615 195.792908,133.842789 188.288681,126.193939 
	C189.404480,123.407158 190.790176,120.809029 192.785217,118.190582 
	C203.238144,128.264633 213.087311,138.353592 222.910889,148.467361 
	C223.476990,149.050171 223.713455,149.970718 224.309067,150.504517 
	C229.052933,154.755981 233.846527,158.951935 238.624878,163.164917 
	C237.987457,166.518539 237.350037,169.872147 236.609344,173.588318 
z"/>
<path fill="#971AB2" opacity="1.000000" stroke="none" 
	d="
M238.817123,162.915253 
	C233.846527,158.951935 229.052933,154.755981 224.309067,150.504517 
	C223.713455,149.970718 223.476990,149.050171 222.910889,148.467361 
	C213.087311,138.353592 203.238144,128.264633 193.074814,118.024719 
	C195.298309,115.336998 197.841553,112.794830 200.707031,110.162399 
	C205.094940,114.857185 208.982468,119.808563 213.263153,124.392838 
	C222.336166,134.109360 231.601837,143.646347 240.833740,153.213287 
	C241.499298,153.903000 242.531448,154.238953 243.704346,154.875046 
	C242.346832,157.562317 240.678101,160.113953 238.817123,162.915253 
z"/>
<path fill="#B21E9F" opacity="1.000000" stroke="none" 
	d="
M465.291077,92.840881 
	C460.783386,87.617226 456.550903,82.245819 452.356415,76.844894 
	C450.189117,74.054291 448.089355,71.211288 445.934052,67.995049 
	C460.178223,64.905785 474.389343,65.741447 489.859283,68.401039 
	C481.384735,76.876465 473.483368,84.778687 465.291077,92.840881 
z"/>
<path fill="#7717C9" opacity="1.000000" stroke="none" 
	d="
M335.175995,206.424957 
	C342.274414,212.661530 349.291199,219.349609 356.382812,225.957458 
	C358.085632,227.544174 360.036865,228.864365 361.934570,230.659027 
	C360.274078,231.717453 358.149963,232.006454 356.905823,233.207230 
	C352.854706,237.117126 349.125122,241.360153 344.891296,245.881271 
	C343.747162,243.643600 343.100555,242.378937 341.980957,240.189285 
	C337.114044,245.271149 332.545074,250.048294 327.967041,254.816803 
	C327.045288,255.776932 326.245300,257.040039 325.111847,257.566772 
	C323.457611,258.335571 321.552368,258.564362 319.754150,259.023376 
	C320.245331,257.344147 320.243439,255.202499 321.311157,254.063934 
	C326.544495,248.483475 331.980194,243.083557 337.521088,237.805344 
	C339.693146,235.736282 340.186951,233.916824 339.484558,230.848343 
	C337.671967,222.929932 336.531036,214.857773 335.175995,206.424957 
z"/>
<path fill="#7C16C5" opacity="1.000000" stroke="none" 
	d="
M184.894196,139.445587 
	C187.413254,140.822540 190.104980,142.386658 192.206924,144.529343 
	C197.174652,149.593307 201.884201,154.912125 206.656616,160.165619 
	C212.084885,166.141037 217.468033,172.157455 222.934418,178.477814 
	C203.971298,180.030777 183.516190,162.615112 184.894196,139.445587 
z"/>
<path fill="#BD2098" opacity="1.000000" stroke="none" 
	d="
M259.364441,147.638885 
	C260.954071,139.303421 253.375290,136.069702 249.408813,131.215424 
	C242.835541,123.170898 235.144867,116.043747 228.016373,108.444366 
	C226.807220,107.155342 226.055695,105.437042 225.046249,103.582695 
	C247.228226,103.787445 265.365021,126.920128 259.364441,147.638885 
z"/>
<path fill="#971AB2" opacity="1.000000" stroke="none" 
	d="
M242.472916,160.792480 
	C244.696381,158.435547 246.919861,156.078629 249.611374,153.953064 
	C260.428894,165.209518 270.778351,176.234619 281.127838,187.259720 
	C278.773987,189.431519 276.420166,191.603302 273.591431,193.472748 
	C272.234680,191.773972 271.531647,190.215637 270.439758,189.009308 
	C265.880981,183.972778 261.321442,178.926895 256.539062,174.105728 
	C251.994827,169.524658 247.172806,165.219147 242.472916,160.792480 
z"/>
<path fill="#A81CA6" opacity="1.000000" stroke="none" 
	d="
M281.419556,187.064178 
	C270.778351,176.234619 260.428894,165.209518 249.942566,153.832886 
	C252.943100,152.308655 256.080475,151.135956 259.612915,150.368729 
	C261.037781,152.381668 261.859131,154.180847 263.131866,155.564926 
	C270.366669,163.432678 277.709259,171.201294 285.015198,179.003632 
	C283.913879,181.625290 282.812592,184.246964 281.419556,187.064178 
z"/>
<path fill="#8A18BB" opacity="1.000000" stroke="none" 
	d="
M242.244217,161.040009 
	C247.172806,165.219147 251.994827,169.524658 256.539062,174.105728 
	C261.321442,178.926895 265.880981,183.972778 270.439758,189.009308 
	C271.531647,190.215637 272.234680,191.773972 273.246277,193.565491 
	C271.812134,194.656784 270.248291,195.353012 268.116791,195.757263 
	C265.862640,194.583954 263.789917,194.068344 262.552582,192.761642 
	C254.767227,184.539932 247.167603,176.142365 239.506607,167.802902 
	C240.342911,165.631119 241.179214,163.459335 242.244217,161.040009 
z"/>
<path fill="#B71E9C" opacity="1.000000" stroke="none" 
	d="
M285.225281,178.657806 
	C277.709259,171.201294 270.366669,163.432678 263.131866,155.564926 
	C261.859131,154.180847 261.037781,152.381668 260.002441,150.412308 
	C276.477936,148.630051 288.145325,161.592270 285.225281,178.657806 
z"/>
<path fill="#7C16C5" opacity="1.000000" stroke="none" 
	d="
M239.342529,168.128174 
	C247.167603,176.142365 254.767227,184.539932 262.552582,192.761642 
	C263.789917,194.068344 265.862640,194.583954 267.775055,195.738312 
	C254.508759,200.795990 235.416031,188.275894 239.342529,168.128174 
z"/>
<path fill="#BD2098" opacity="1.000000" stroke="none" 
	d="
M557.872131,66.725372 
	C566.271484,58.209084 574.612915,49.633713 583.150391,41.258289 
	C584.115051,40.311993 586.185791,40.493187 587.743591,40.151554 
	C587.357971,41.827679 587.522827,44.035007 586.499390,45.095749 
	C578.417480,53.471893 570.108887,61.629326 561.250977,69.849884 
	C559.712036,68.805611 558.792114,67.765488 557.872131,66.725372 
z"/>
<path fill="#9F1BAC" opacity="1.000000" stroke="none" 
	d="
M388.879211,90.672882 
	C397.267822,85.534248 405.656403,80.395622 414.045013,75.256996 
	C414.355835,75.715500 414.666656,76.174004 414.977478,76.632507 
	C408.652740,83.045540 402.328033,89.458580 395.312317,95.967285 
	C392.707306,94.266273 390.793274,92.469574 388.879211,90.672882 
z"/>
<path fill="#9B1AAF" opacity="1.000000" stroke="none" 
	d="
M388.550140,90.791176 
	C390.793274,92.469574 392.707306,94.266273 395.022644,96.102242 
	C391.202759,100.462112 386.981537,104.782707 382.453766,109.262764 
	C381.014160,105.665512 378.902435,103.050774 374.223694,102.951744 
	C378.626038,98.925354 383.423553,94.917412 388.550140,90.791176 
z"/>
<path fill="#B21E9F" opacity="1.000000" stroke="none" 
	d="
M557.568359,66.879089 
	C558.792114,67.765488 559.712036,68.805611 560.954407,69.990128 
	C554.894409,76.622040 548.511902,83.109543 541.835327,89.797440 
	C540.157959,89.270409 538.774597,88.542999 537.224609,87.557480 
	C543.793518,80.543861 550.528992,73.788338 557.568359,66.879089 
z"/>
<path fill="#BD2098" opacity="1.000000" stroke="none" 
	d="
M596.811340,198.140442 
	C596.012451,196.575943 595.491638,194.857880 594.944580,192.731964 
	C598.249878,189.095352 601.473145,185.740723 604.982483,182.718231 
	C605.972778,181.865280 607.800598,181.984818 609.244324,181.658325 
	C609.080994,183.236938 609.508728,185.343765 608.651855,186.302429 
	C605.004944,190.382538 600.977783,194.122650 596.811340,198.140442 
z"/>
<path fill="#9B1AAF" opacity="1.000000" stroke="none" 
	d="
M381.872162,113.616768 
	C381.681305,112.717522 381.327179,111.442459 381.266937,110.085022 
	C381.610168,111.082085 381.659515,112.161522 381.872162,113.616768 
z"/>
<path fill="#BD2098" opacity="1.000000" stroke="none" 
	d="
M590.796753,164.719193 
	C590.391602,164.415619 590.016174,163.830444 589.880127,163.097549 
	C590.355225,163.445740 590.590881,163.941666 590.796753,164.719193 
z"/>
<path fill="#BD2098" opacity="1.000000" stroke="none" 
	d="
M591.731201,168.724670 
	C591.340515,168.415283 590.988403,167.829071 590.872131,167.099136 
	C591.328552,167.452911 591.549133,167.950378 591.731201,168.724670 
z"/>
<path fill="#BD2098" opacity="1.000000" stroke="none" 
	d="
M508.779938,73.845764 
	C508.354065,73.946037 507.718170,73.863754 507.040833,73.508636 
	C507.522888,73.378265 508.046387,73.520744 508.779938,73.845764 
z"/>
<path fill="#B21E9F" opacity="1.000000" stroke="none" 
	d="
M466.764160,97.297958 
	C466.787048,97.732857 466.572174,98.053841 466.357300,98.374817 
	C466.246674,98.116112 466.136017,97.857407 466.012817,97.374428 
	C466.175598,97.161453 466.351013,97.172745 466.764160,97.297958 
z"/>
<path fill="#B21E9F" opacity="1.000000" stroke="none" 
	d="
M438.834473,69.375443 
	C438.902557,69.519928 438.721710,69.648445 438.388367,69.681747 
	C438.288239,69.671700 438.637848,69.444633 438.834473,69.375443 
z"/>
</svg>